<svg width="538" height="378" viewBox="0 0 538 378" fill="none" 
    xmlns="http://www.w3.org/2000/svg">
    <path d="M19 210.436H111.52C111.941 210.436 112.151 210.436 112.339 210.516C112.527 210.596 112.673 210.748 112.964 211.052L170.295 270.838C171.33 271.917 171.848 272.457 172.401 272.329C172.954 272.202 173.184 271.49 173.642 270.067L218.801 129.91C219.621 127.365 220.031 126.092 220.771 126.103C221.511 126.114 221.883 127.399 222.626 129.967L287.571 354.316C288.557 357.725 289.051 359.43 289.852 359.378C290.653 359.327 290.925 357.573 291.468 354.066L342.311 25.8497C343.062 21.0013 343.437 18.577 344.295 18.578C345.153 18.5789 345.524 21.0039 346.264 25.854L384.151 273.94C384.505 276.258 384.682 277.418 385.375 277.551C386.068 277.684 386.663 276.674 387.852 274.652L425.047 211.422C425.33 210.94 425.471 210.7 425.702 210.568C425.933 210.436 426.212 210.436 426.77 210.436H519" stroke="#333333" stroke-width="37" stroke-linecap="round" stroke-linejoin="round"/>
</svg>
